<svg width="126" height="89" viewBox="0 0 126 89" fill="none" xmlns="http://www.w3.org/2000/svg">
<path fill-rule="evenodd" clip-rule="evenodd" d="M79.8714 58.5575C84.5482 60.9877 89.5589 62.2027 94.9038 62.2027C100.165 62.2027 105.134 60.9877 109.811 58.5575C114.488 56.1273 118.287 52.6389 121.21 48.0921C124.133 43.5454 125.595 38.0187 125.595 31.5122C125.595 25.0056 124.133 19.479 121.21 14.9322C118.287 10.3855 114.488 6.897 109.811 4.46684C105.134 2.03668 100.165 0.821594 94.9038 0.821594C89.5589 0.821594 84.5482 2.03668 79.8714 4.46684C75.2782 6.897 71.5202 10.3855 68.5972 14.9322C65.6742 19.479 64.2128 25.0056 64.2128 31.5122C64.2128 38.0187 65.6742 43.5454 68.5972 48.0921C71.5202 52.6389 75.2782 56.1273 79.8714 58.5575ZM88.4614 42.9947C90.4536 44.03 92.5881 44.5476 94.8649 44.5476C97.1061 44.5476 99.2228 44.03 101.215 42.9947C103.207 41.9595 104.826 40.4735 106.071 38.5366C107.316 36.5997 107.939 34.2454 107.939 31.4737C107.939 28.702 107.316 26.3477 106.071 24.4108C104.826 22.474 103.207 20.9879 101.215 19.9527C99.2228 18.9175 97.1061 18.3999 94.8649 18.3999C92.5881 18.3999 90.4536 18.9175 88.4614 19.9527C86.5047 20.9879 84.9039 22.474 83.6587 24.4108C82.4136 26.3477 81.791 28.702 81.791 31.4737C81.791 34.2454 82.4136 36.5997 83.6587 38.5366C84.9039 40.4735 86.5047 41.9595 88.4614 42.9947Z" fill="#007AFF"/>
<path d="M14.767 88.6703C12.7627 88.6703 11.0507 88.545 9.63093 88.2945C8.29473 88.044 6.95852 87.6681 5.62231 87.1671L9.12986 72.5106C10.132 72.7611 10.8836 72.8864 11.3847 72.8864C11.9693 72.9699 12.5956 73.0116 13.2637 73.0116C16.1867 73.0116 18.4415 72.3435 20.0283 71.0073C21.6986 69.6711 22.8677 67.9591 23.5358 65.8713L24.4127 62.8648L0.486267 2.35968H20.5294L28.6719 27.7894C29.5905 30.5453 30.4257 33.3847 31.1773 36.3077C31.9289 39.2306 32.6805 42.2789 33.4321 45.4524H33.9332C34.6013 42.4459 35.2694 39.4812 35.9375 36.5582C36.6056 33.6353 37.3155 30.7123 38.0671 27.7894L44.9569 2.35968H64.1231L42.8273 64.6186C40.7395 69.9634 38.4847 74.4313 36.0628 78.0224C33.6409 81.6135 30.718 84.2859 27.2939 86.0396C23.9534 87.7934 19.7778 88.6703 14.767 88.6703Z" fill="#007AFF"/>
<path d="M30.4047 17.7899L25.4641 2.35968H40.2861L36.1055 17.7899C35.6495 19.5634 35.2188 21.337 34.8134 23.1106C34.408 24.8842 34.0026 26.6831 33.5972 28.5074H33.2932C32.8371 26.5818 32.381 24.7322 31.925 22.9586C31.4689 21.185 30.9622 19.4621 30.4047 17.7899Z" fill="#007AFF"/>
</svg>
