<svg width="18" height="18" viewBox="0 0 18 18" fill="none" xmlns="http://www.w3.org/2000/svg">
<path d="M4.67529 2.53209e-07H5.69725C6.10766 2.53209e-07 6.44037 0.332707 6.44037 0.74312C6.44037 1.15353 6.10766 1.48624 5.69725 1.48624H4.70642C4.00052 1.48624 3.51578 1.48682 3.14001 1.51752C2.7729 1.54751 2.57571 1.60251 2.43299 1.67523C2.10673 1.84147 1.84147 2.10673 1.67523 2.43299C1.60251 2.57571 1.54751 2.7729 1.51752 3.14001C1.48682 3.51578 1.48624 4.00052 1.48624 4.70642V5.69725C1.48624 6.10766 1.15353 6.44037 0.74312 6.44037C0.332707 6.44037 2.53208e-07 6.10766 2.53208e-07 5.69725V4.67529C-8.11343e-06 4.0081 -1.49582e-05 3.46243 0.0362168 3.01898C0.0737194 2.55997 0.153714 2.14541 0.35098 1.75825C0.65971 1.15233 1.15233 0.65971 1.75825 0.35098C2.14541 0.153714 2.55997 0.0737194 3.01898 0.0362168C3.46243 -1.49582e-05 4.0081 -8.11343e-06 4.67529 2.53209e-07Z" fill="#A0A0B3"/>
<path d="M4.67529 18H5.69725C6.10766 18 6.44037 17.6673 6.44037 17.2569C6.44037 16.8465 6.10766 16.5138 5.69725 16.5138H4.70642C4.00052 16.5138 3.51578 16.5132 3.14001 16.4825C2.7729 16.4525 2.57571 16.3975 2.43299 16.3248C2.10673 16.1585 1.84147 15.8933 1.67523 15.567C1.60251 15.4243 1.54751 15.2271 1.51752 14.86C1.48682 14.4842 1.48624 13.9995 1.48624 13.2936V12.3028C1.48624 11.8923 1.15353 11.5596 0.74312 11.5596C0.332707 11.5596 2.53208e-07 11.8923 2.53208e-07 12.3028V13.3247C-8.11343e-06 13.9919 -1.49582e-05 14.5376 0.0362168 14.981C0.0737194 15.44 0.153714 15.8546 0.35098 16.2417C0.65971 16.8477 1.15233 17.3403 1.75825 17.649C2.14541 17.8463 2.55997 17.9263 3.01898 17.9638C3.46244 18 4.00809 18 4.67529 18Z" fill="#A0A0B3"/>
<path d="M13.3247 2.53209e-07C13.9919 -8.11343e-06 14.5376 -1.49582e-05 14.981 0.0362168C15.44 0.0737194 15.8546 0.153714 16.2417 0.35098C16.8477 0.65971 17.3403 1.15233 17.649 1.75825C17.8463 2.14541 17.9263 2.55997 17.9638 3.01898C18 3.46244 18 4.00809 18 4.67529V5.69725C18 6.10766 17.6673 6.44037 17.2569 6.44037C16.8465 6.44037 16.5138 6.10766 16.5138 5.69725V4.70642C16.5138 4.00052 16.5132 3.51578 16.4825 3.14001C16.4525 2.7729 16.3975 2.57571 16.3248 2.43299C16.1585 2.10673 15.8933 1.84147 15.567 1.67523C15.4243 1.60251 15.2271 1.54751 14.86 1.51752C14.4842 1.48682 13.9995 1.48624 13.2936 1.48624H12.3028C11.8923 1.48624 11.5596 1.15353 11.5596 0.74312C11.5596 0.332707 11.8923 2.53209e-07 12.3028 2.53209e-07H13.3247Z" fill="#A0A0B3"/>
<path d="M13.3247 18H12.3028C11.8923 18 11.5596 17.6673 11.5596 17.2569C11.5596 16.8465 11.8923 16.5138 12.3028 16.5138H13.2936C13.9995 16.5138 14.4842 16.5132 14.86 16.4825C15.2271 16.4525 15.4243 16.3975 15.567 16.3248C15.8933 16.1585 16.1585 15.8933 16.3248 15.567C16.3975 15.4243 16.4525 15.2271 16.4825 14.86C16.5132 14.4842 16.5138 13.9995 16.5138 13.2936V12.3028C16.5138 11.8923 16.8465 11.5596 17.2569 11.5596C17.6673 11.5596 18 11.8923 18 12.3028V13.3247C18 13.9919 18 14.5376 17.9638 14.981C17.9263 15.44 17.8463 15.8546 17.649 16.2417C17.3403 16.8477 16.8477 17.3403 16.2417 17.649C15.8546 17.8463 15.44 17.9263 14.981 17.9638C14.5376 18 13.9919 18 13.3247 18Z" fill="#A0A0B3"/>
<path d="M4.04619 8.2572C3.63578 8.2572 3.30307 8.58991 3.30307 9.00032C3.30307 9.41074 3.63578 9.74344 4.04619 9.74344H13.9544C14.3649 9.74344 14.6976 9.41074 14.6976 9.00032C14.6976 8.58991 14.3649 8.2572 13.9544 8.2572H4.04619Z" fill="#A0A0B3"/>
</svg>
