<svg width="18" height="19" viewBox="0 0 18 19" fill="none" xmlns="http://www.w3.org/2000/svg">
<path fill-rule="evenodd" clip-rule="evenodd" d="M9.70719 0.709032C9.51965 0.521495 9.2653 0.416138 9.00008 0.416138C8.73486 0.416138 8.48051 0.521495 8.29297 0.709032L3.44269 5.55933C3.05217 5.94986 3.05217 6.58302 3.4427 6.97355C3.83322 7.36407 4.46639 7.36407 4.85691 6.97354L8.00008 3.83036V12.1946C8.00008 12.7469 8.4478 13.1946 9.00008 13.1946C9.55237 13.1946 10.0001 12.7469 10.0001 12.1946V3.83036L13.1433 6.97354C13.5338 7.36407 14.1669 7.36407 14.5575 6.97355C14.948 6.58302 14.948 5.94986 14.5575 5.55933L9.70719 0.709032ZM2.4552 12.7335C2.4552 12.1812 2.00749 11.7335 1.4552 11.7335C0.902918 11.7335 0.455201 12.1812 0.455201 12.7335V14.1347V14.1738V14.1738C0.455185 14.7441 0.455171 15.2315 0.487893 15.632C0.522315 16.0533 0.597873 16.4657 0.799151 16.8608C1.1017 17.4545 1.58446 17.9373 2.17824 18.2399C2.57327 18.4411 2.98571 18.5167 3.40702 18.5511C3.80753 18.5838 4.29491 18.5838 4.86521 18.5838L4.9043 18.5838H13.0959L13.135 18.5838C13.7053 18.5838 14.1926 18.5838 14.5931 18.5511C15.0144 18.5167 15.4269 18.4411 15.8219 18.2399C16.4157 17.9373 16.8985 17.4545 17.201 16.8608C17.4023 16.4657 17.4778 16.0533 17.5123 15.632C17.545 15.2315 17.545 14.7441 17.545 14.1739V14.1738V14.1347V12.7335C17.545 12.1812 17.0972 11.7335 16.545 11.7335C15.9927 11.7335 15.545 12.1812 15.545 12.7335V14.1347C15.545 14.7549 15.5442 15.1598 15.5189 15.4691C15.4946 15.7667 15.4527 15.8867 15.419 15.9528C15.3082 16.1702 15.1314 16.347 14.9139 16.4578C14.8478 16.4915 14.7279 16.5334 14.4303 16.5578C14.121 16.583 13.716 16.5838 13.0959 16.5838H4.9043C4.28415 16.5838 3.87918 16.583 3.56988 16.5578C3.27226 16.5334 3.15231 16.4915 3.08622 16.4578C2.86876 16.347 2.69196 16.1702 2.58116 15.9528C2.54749 15.8867 2.50557 15.7667 2.48125 15.4691C2.45598 15.1598 2.4552 14.7549 2.4552 14.1347V12.7335Z" fill="#A0A0B3"/>
</svg>
