<svg width="126" height="89" viewBox="0 0 126 89" fill="none" xmlns="http://www.w3.org/2000/svg">
<path fill-rule="evenodd" clip-rule="evenodd" d="M46.1411 30.4706C41.4644 28.0404 36.4536 26.8253 31.1088 26.8253C25.8475 26.8253 20.8785 28.0404 16.2017 30.4706C11.525 32.9007 7.72517 36.3892 4.80221 40.9359C1.87926 45.4827 0.417782 51.0094 0.417783 57.5159C0.417784 64.0225 1.87926 69.5491 4.80221 74.0959C7.72517 78.6426 11.525 82.1311 16.2017 84.5612C20.8785 86.9914 25.8475 88.2065 31.1088 88.2065C36.4536 88.2065 41.4644 86.9914 46.1411 84.5612C50.7343 82.1311 54.4924 78.6426 57.4154 74.0959C60.3383 69.5491 61.7998 64.0225 61.7998 57.5159C61.7998 51.0093 60.3383 45.4827 57.4154 40.9359C54.4924 36.3892 50.7343 32.9007 46.1411 30.4706ZM37.5512 46.0333C35.559 44.9981 33.4245 44.4805 31.1477 44.4805C28.9064 44.4805 26.7897 44.9981 24.7975 46.0333C22.8053 47.0686 21.1866 48.5546 19.9415 50.4915C18.6964 52.4283 18.0738 54.7826 18.0738 57.5544C18.0738 60.3261 18.6964 62.6804 19.9415 64.6172C21.1867 66.5541 22.8053 68.0401 24.7975 69.0754C26.7897 70.1106 28.9064 70.6282 31.1477 70.6282C33.4245 70.6282 35.559 70.1106 37.5512 69.0754C39.5078 68.0401 41.1087 66.5541 42.3538 64.6172C43.599 62.6804 44.2215 60.3261 44.2215 57.5544C44.2215 54.7826 43.599 52.4283 42.3538 50.4915C41.1087 48.5546 39.5078 47.0686 37.5512 46.0333Z" fill="#007AFF"/>
<path d="M111.246 0.357774C113.25 0.357774 114.962 0.483041 116.382 0.733582C117.718 0.984124 119.054 1.35993 120.39 1.86102L116.883 16.5175C115.881 16.267 115.129 16.1417 114.628 16.1417C114.043 16.0582 113.417 16.0165 112.749 16.0165C109.826 16.0165 107.571 16.6846 105.984 18.0208C104.314 19.357 103.145 21.069 102.477 23.1568L101.6 26.1633L125.526 86.6684L105.483 86.6684L97.3407 61.2387C96.422 58.4828 95.5869 55.6433 94.8353 52.7204C94.0837 49.7974 93.3321 46.7492 92.5805 43.5757L92.0794 43.5757C91.4113 46.5822 90.7432 49.5469 90.0751 52.4699C89.407 55.3928 88.6971 58.3158 87.9455 61.2387L81.0557 86.6684L61.8894 86.6684L83.1852 24.4095C85.2731 19.0647 87.5279 14.5967 89.9498 11.0057C92.3717 7.41462 95.2946 4.74221 98.7186 2.98844C102.059 1.23467 106.235 0.357775 111.246 0.357774Z" fill="#007AFF"/>
<path d="M95.6078 71.2382L100.549 86.6684L85.7264 86.6684L89.907 71.2382C90.3631 69.4646 90.7938 67.6911 91.1992 65.9175C91.6046 64.1439 92.01 62.345 92.4154 60.5207L92.7194 60.5207C93.1755 62.4463 93.6315 64.2959 94.0876 66.0695C94.5437 67.8431 95.0504 69.566 95.6078 71.2382Z" fill="#007AFF"/>
</svg>
